<?xml version="1.0" encoding="UTF-8"?>
<svg xmlns="http://www.w3.org/2000/svg" xmlns:xlink="http://www.w3.org/1999/xlink" width="60px" height="60px" viewBox="0 0 60 60" version="1.1">
<g id="surface1">
<path style=" stroke:none;fill-rule:nonzero;fill:rgb(0%,46.666667%,71.764708%);fill-opacity:1;" d="M 54.574219 0 L 5.425781 0 C 2.429688 0 0 2.429688 0 5.425781 L 0 54.574219 C 0 57.570312 2.429688 60 5.425781 60 L 54.574219 60 C 57.570312 60 60 57.570312 60 54.574219 L 60 5.425781 C 60 2.429688 57.570312 0 54.574219 0 Z M 18.566406 51.808594 C 18.566406 52.679688 17.859375 53.386719 16.988281 53.386719 L 10.261719 53.386719 C 9.390625 53.386719 8.683594 52.679688 8.683594 51.808594 L 8.683594 23.625 C 8.683594 22.75 9.390625 22.042969 10.261719 22.042969 L 16.988281 22.042969 C 17.859375 22.042969 18.566406 22.75 18.566406 23.625 Z M 13.625 19.386719 C 10.097656 19.386719 7.238281 16.527344 7.238281 13 C 7.238281 9.472656 10.097656 6.613281 13.625 6.613281 C 17.152344 6.613281 20.011719 9.472656 20.011719 13 C 20.011719 16.527344 17.152344 19.386719 13.625 19.386719 Z M 53.703125 51.933594 C 53.703125 52.738281 53.054688 53.386719 52.25 53.386719 L 45.035156 53.386719 C 44.234375 53.386719 43.582031 52.738281 43.582031 51.933594 L 43.582031 38.714844 C 43.582031 36.742188 44.164062 30.074219 38.429688 30.074219 C 33.984375 30.074219 33.082031 34.636719 32.902344 36.6875 L 32.902344 51.933594 C 32.902344 52.738281 32.25 53.386719 31.449219 53.386719 L 24.46875 53.386719 C 23.667969 53.386719 23.019531 52.738281 23.019531 51.933594 L 23.019531 23.496094 C 23.019531 22.695312 23.667969 22.042969 24.46875 22.042969 L 31.449219 22.042969 C 32.25 22.042969 32.902344 22.695312 32.902344 23.496094 L 32.902344 25.957031 C 34.550781 23.480469 37 21.570312 42.214844 21.570312 C 53.769531 21.570312 53.703125 32.363281 53.703125 38.292969 Z M 53.703125 51.933594 "/>
</g>
</svg>
